<mxfile host="app.diagrams.net" agent="Mozilla/5.0 (Windows NT 10.0; Win64; x64) AppleWebKit/537.36 (KHTML, like Gecko) Chrome/129.0.0.0 Safari/537.36" version="24.7.16">
  <diagram id="_R48B3xf-PeOegGRlINV" name="Page-1">
    <mxGraphModel dx="461" dy="538" grid="1" gridSize="10" guides="1" tooltips="1" connect="1" arrows="1" fold="1" page="1" pageScale="1" pageWidth="850" pageHeight="1100" math="0" shadow="0">
      <root>
        <mxCell id="0" />
        <mxCell id="1" parent="0" />
        <mxCell id="YHhe0OD92koT7-0cidmW-4" value="" style="rounded=0;whiteSpace=wrap;html=1;" parent="1" vertex="1">
          <mxGeometry x="310" y="30" width="290" height="340" as="geometry" />
        </mxCell>
        <mxCell id="YHhe0OD92koT7-0cidmW-2" value="Update items&lt;div&gt;(add or remove&lt;/div&gt;&lt;div&gt;item)&lt;/div&gt;" style="ellipse;whiteSpace=wrap;html=1;" parent="1" vertex="1">
          <mxGeometry x="485" y="109" width="115" height="50" as="geometry" />
        </mxCell>
        <mxCell id="YHhe0OD92koT7-0cidmW-11" style="edgeStyle=orthogonalEdgeStyle;rounded=0;orthogonalLoop=1;jettySize=auto;html=1;entryX=0;entryY=0.5;entryDx=0;entryDy=0;" parent="1" source="YHhe0OD92koT7-0cidmW-5" target="YHhe0OD92koT7-0cidmW-10" edge="1">
          <mxGeometry relative="1" as="geometry" />
        </mxCell>
        <mxCell id="YHhe0OD92koT7-0cidmW-5" value="Buyer" style="shape=umlActor;verticalLabelPosition=bottom;verticalAlign=top;html=1;" parent="1" vertex="1">
          <mxGeometry x="252" y="180" width="30" height="60" as="geometry" />
        </mxCell>
        <mxCell id="YHhe0OD92koT7-0cidmW-54" style="edgeStyle=orthogonalEdgeStyle;rounded=0;orthogonalLoop=1;jettySize=auto;html=1;entryX=1;entryY=0.5;entryDx=0;entryDy=0;" parent="1" source="YHhe0OD92koT7-0cidmW-7" target="YHhe0OD92koT7-0cidmW-50" edge="1">
          <mxGeometry relative="1" as="geometry" />
        </mxCell>
        <mxCell id="YHhe0OD92koT7-0cidmW-7" value="Database authentication" style="shape=umlActor;verticalLabelPosition=bottom;verticalAlign=top;html=1;" parent="1" vertex="1">
          <mxGeometry x="670" y="164" width="30" height="60" as="geometry" />
        </mxCell>
        <mxCell id="YHhe0OD92koT7-0cidmW-19" style="edgeStyle=orthogonalEdgeStyle;rounded=0;orthogonalLoop=1;jettySize=auto;html=1;exitX=0.5;exitY=1;exitDx=0;exitDy=0;entryX=0.5;entryY=0;entryDx=0;entryDy=0;" parent="1" source="YHhe0OD92koT7-0cidmW-10" target="YHhe0OD92koT7-0cidmW-13" edge="1">
          <mxGeometry relative="1" as="geometry" />
        </mxCell>
        <mxCell id="YHhe0OD92koT7-0cidmW-20" style="edgeStyle=orthogonalEdgeStyle;rounded=0;orthogonalLoop=1;jettySize=auto;html=1;exitX=1;exitY=0.5;exitDx=0;exitDy=0;entryX=0.5;entryY=0;entryDx=0;entryDy=0;" parent="1" source="YHhe0OD92koT7-0cidmW-10" target="YHhe0OD92koT7-0cidmW-2" edge="1">
          <mxGeometry relative="1" as="geometry" />
        </mxCell>
        <mxCell id="YHhe0OD92koT7-0cidmW-10" value="Login" style="ellipse;whiteSpace=wrap;html=1;" parent="1" vertex="1">
          <mxGeometry x="365" y="59" width="40" height="31" as="geometry" />
        </mxCell>
        <mxCell id="YHhe0OD92koT7-0cidmW-47" style="edgeStyle=orthogonalEdgeStyle;rounded=0;orthogonalLoop=1;jettySize=auto;html=1;exitX=1;exitY=0.5;exitDx=0;exitDy=0;entryX=0;entryY=0.5;entryDx=0;entryDy=0;" parent="1" source="YHhe0OD92koT7-0cidmW-13" target="YHhe0OD92koT7-0cidmW-2" edge="1">
          <mxGeometry relative="1" as="geometry" />
        </mxCell>
        <mxCell id="YHhe0OD92koT7-0cidmW-13" value="View Shopping Cart" style="ellipse;whiteSpace=wrap;html=1;" parent="1" vertex="1">
          <mxGeometry x="350" y="110" width="70" height="48" as="geometry" />
        </mxCell>
        <mxCell id="YHhe0OD92koT7-0cidmW-16" value="Shopping cart system" style="text;html=1;align=center;verticalAlign=middle;whiteSpace=wrap;rounded=0;" parent="1" vertex="1">
          <mxGeometry x="385" y="29" width="140" height="30" as="geometry" />
        </mxCell>
        <mxCell id="YHhe0OD92koT7-0cidmW-52" style="edgeStyle=orthogonalEdgeStyle;rounded=0;orthogonalLoop=1;jettySize=auto;html=1;exitX=0.5;exitY=1;exitDx=0;exitDy=0;entryX=0.5;entryY=0;entryDx=0;entryDy=0;" parent="1" source="YHhe0OD92koT7-0cidmW-18" target="YHhe0OD92koT7-0cidmW-32" edge="1">
          <mxGeometry relative="1" as="geometry" />
        </mxCell>
        <mxCell id="YHhe0OD92koT7-0cidmW-53" style="edgeStyle=orthogonalEdgeStyle;rounded=0;orthogonalLoop=1;jettySize=auto;html=1;exitX=0.5;exitY=1;exitDx=0;exitDy=0;entryX=0.5;entryY=0;entryDx=0;entryDy=0;" parent="1" source="YHhe0OD92koT7-0cidmW-18" target="YHhe0OD92koT7-0cidmW-37" edge="1">
          <mxGeometry relative="1" as="geometry" />
        </mxCell>
        <mxCell id="YHhe0OD92koT7-0cidmW-18" value="Checkout items" style="ellipse;whiteSpace=wrap;html=1;" parent="1" vertex="1">
          <mxGeometry x="415" y="164" width="100" height="40" as="geometry" />
        </mxCell>
        <mxCell id="YHhe0OD92koT7-0cidmW-32" value="Enter credit card information" style="ellipse;whiteSpace=wrap;html=1;" parent="1" vertex="1">
          <mxGeometry x="335" y="253" width="100" height="47" as="geometry" />
        </mxCell>
        <mxCell id="YHhe0OD92koT7-0cidmW-37" value="View subtotal" style="ellipse;whiteSpace=wrap;html=1;" parent="1" vertex="1">
          <mxGeometry x="495" y="252" width="70" height="48" as="geometry" />
        </mxCell>
        <mxCell id="YHhe0OD92koT7-0cidmW-56" style="edgeStyle=orthogonalEdgeStyle;rounded=0;orthogonalLoop=1;jettySize=auto;html=1;" parent="1" source="YHhe0OD92koT7-0cidmW-50" edge="1">
          <mxGeometry relative="1" as="geometry">
            <mxPoint x="270" y="270" as="targetPoint" />
          </mxGeometry>
        </mxCell>
        <mxCell id="YHhe0OD92koT7-0cidmW-50" value="Confirm order" style="ellipse;whiteSpace=wrap;html=1;" parent="1" vertex="1">
          <mxGeometry x="395" y="310" width="100" height="47" as="geometry" />
        </mxCell>
        <mxCell id="YHhe0OD92koT7-0cidmW-51" style="edgeStyle=orthogonalEdgeStyle;rounded=0;orthogonalLoop=1;jettySize=auto;html=1;exitX=0.5;exitY=1;exitDx=0;exitDy=0;entryX=0.067;entryY=0.333;entryDx=0;entryDy=0;entryPerimeter=0;" parent="1" source="YHhe0OD92koT7-0cidmW-13" target="YHhe0OD92koT7-0cidmW-18" edge="1">
          <mxGeometry relative="1" as="geometry" />
        </mxCell>
        <mxCell id="YHhe0OD92koT7-0cidmW-58" style="edgeStyle=orthogonalEdgeStyle;rounded=0;orthogonalLoop=1;jettySize=auto;html=1;exitX=1;exitY=0.5;exitDx=0;exitDy=0;entryX=0;entryY=0.3333333333333333;entryDx=0;entryDy=0;entryPerimeter=0;" parent="1" source="YHhe0OD92koT7-0cidmW-18" target="YHhe0OD92koT7-0cidmW-7" edge="1">
          <mxGeometry relative="1" as="geometry" />
        </mxCell>
        <mxCell id="ceP5tS24NW2Buw9mB-F9-1" style="edgeStyle=orthogonalEdgeStyle;rounded=0;orthogonalLoop=1;jettySize=auto;html=1;exitX=1;exitY=0.5;exitDx=0;exitDy=0;entryX=0.5;entryY=0;entryDx=0;entryDy=0;entryPerimeter=0;" parent="1" source="YHhe0OD92koT7-0cidmW-10" target="YHhe0OD92koT7-0cidmW-7" edge="1">
          <mxGeometry relative="1" as="geometry" />
        </mxCell>
      </root>
    </mxGraphModel>
  </diagram>
</mxfile>
